<?xml version="1.0" standalone="no"?>
<!DOCTYPE svg PUBLIC "-//W3C//DTD SVG 20010904//EN"
 "http://www.w3.org/TR/2001/REC-SVG-20010904/DTD/svg10.dtd">
<svg version="1.0" xmlns="http://www.w3.org/2000/svg"
 width="504.000000pt" height="322.000000pt" viewBox="0 0 504.000000 322.000000"
 preserveAspectRatio="xMidYMid meet">

<g transform="translate(0.000000,322.000000) scale(0.100000,-0.100000)"
fill="#000000" stroke="none">
<path d="M0 1610 l0 -1610 2520 0 2520 0 0 1610 0 1610 -2520 0 -2520 0 0
-1610z m2820 1009 c291 -44 522 -120 815 -266 50 -25 96 -50 103 -55 8 -7 12
-39 12 -95 l0 -84 -52 3 -53 3 -5 50 -5 50 -90 45 c-50 25 -110 53 -135 63
-25 10 -56 23 -70 29 -96 40 -143 55 -305 97 -177 46 -261 55 -485 55 -127 0
-239 -5 -275 -12 -33 -7 -85 -17 -115 -23 -175 -36 -342 -96 -525 -188 l-110
-56 -3 -155 c-2 -144 -4 -156 -23 -172 -12 -11 -38 -18 -60 -18 l-39 0 2 206
3 206 50 29 c166 95 369 182 535 229 25 7 56 16 70 20 57 19 199 40 320 50
122 9 346 4 440 -11z m941 -589 c-17 -59 -12 -89 29 -175 33 -70 40 -95 35
-121 -9 -50 -23 -50 -45 -1 -21 47 -92 120 -129 132 -33 10 -22 39 17 45 32 5
32 6 17 28 -15 20 -21 22 -88 16 -102 -8 -102 -8 -71 -49 15 -20 24 -38 21
-41 -3 -3 -34 11 -68 32 -60 38 -65 39 -153 39 -81 0 -96 -3 -137 -27 -50 -30
-104 -85 -122 -127 -11 -25 -12 -24 -15 21 -2 32 2 55 14 74 l18 26 -85 -6
c-46 -4 -127 -11 -179 -16 -92 -9 -187 -17 -450 -40 -69 -5 -145 -10 -169 -10
-40 0 -43 -2 -36 -22 4 -13 9 -36 12 -53 5 -30 5 -30 -40 17 -71 73 -132 98
-239 98 -109 0 -162 -23 -233 -102 -26 -29 -44 -44 -41 -34 4 11 2 22 -4 26
-13 8 -112 -12 -161 -33 -35 -14 -60 -37 -42 -37 4 0 19 -10 33 -21 l25 -21
-37 5 -36 5 5 -56 c3 -31 9 -61 14 -67 5 -5 30 -12 57 -16 l47 -6 -45 -2 c-25
-1 -64 -5 -86 -10 l-41 -8 5 87 c4 81 3 88 -18 103 -22 15 -22 15 31 57 86 68
267 150 331 150 15 0 44 9 65 21 45 25 158 36 223 20 33 -7 46 -7 52 2 12 20
147 26 328 15 285 -16 610 1 980 52 36 5 103 14 150 21 47 6 96 15 110 20 14
4 54 7 90 6 52 -2 64 -5 61 -17z m-1471 -321 l51 -59 103 0 c57 0 192 -3 302
-7 213 -8 211 -10 -61 -32 -313 -26 -369 -30 -377 -25 -5 3 -23 36 -40 72 -16
37 -36 79 -44 94 -23 45 7 25 66 -43z m1548 -116 c-10 -2 -26 -2 -35 0 -10 3
-2 5 17 5 19 0 27 -2 18 -5z m-153 -20 c-33 -1 -89 -7 -125 -12 -36 -6 -108
-15 -160 -20 -123 -13 -265 -28 -387 -41 -54 -6 -136 -15 -183 -20 -47 -5
-130 -14 -185 -20 -55 -5 -181 -19 -280 -30 -185 -20 -564 -61 -974 -105 -308
-33 -281 -35 -281 24 l0 48 48 7 c27 3 116 11 198 16 82 6 211 15 287 20 75 6
199 14 275 20 139 10 294 21 550 40 78 5 206 15 285 20 556 40 705 51 727 54
14 2 79 3 145 3 66 -1 93 -2 60 -4z m-761 -285 c-41 -79 -50 -104 -54 -163
l-5 -70 -37 -3 -38 -3 0 68 c0 64 -3 73 -50 152 -29 50 -47 88 -41 94 15 15
73 3 85 -18 6 -11 20 -33 30 -48 l19 -29 31 58 c25 47 37 60 61 65 17 3 34 2
39 -2 6 -5 -11 -47 -40 -101z m-264 38 c0 -35 -13 -46 -51 -46 -17 0 -19 -10
-21 -127 l-3 -128 -35 0 -35 0 -5 120 -5 120 -27 3 c-24 3 -28 8 -28 37 0 33
0 33 63 43 34 5 81 10 105 11 41 1 42 1 42 -33z m-260 -26 c0 -35 -8 -40 -83
-49 -44 -5 -52 -9 -55 -28 -3 -22 0 -23 67 -23 l71 0 0 -29 c0 -37 -4 -40 -80
-48 -59 -6 -61 -7 -58 -32 2 -14 8 -25 13 -24 6 0 36 4 68 8 l58 7 -3 -38 -3
-39 -88 -9 c-125 -13 -127 -10 -127 149 0 167 11 178 178 184 40 1 42 0 42
-29z m-280 -34 l0 -35 -57 -6 c-79 -9 -85 -12 -81 -37 3 -24 4 -25 91 -13 l47
7 0 -40 0 -39 -61 -7 c-33 -3 -65 -8 -70 -12 -5 -3 -9 -32 -9 -65 l0 -60 -37
3 -38 3 -3 130 c-1 90 2 138 11 155 16 32 65 49 145 49 l62 1 0 -34z m-353
-25 c7 -9 13 -26 13 -38 0 -12 5 -25 10 -28 6 -3 10 -15 10 -26 0 -10 4 -27 9
-37 19 -37 52 -153 46 -162 -3 -6 -19 -10 -35 -10 -23 0 -33 7 -45 31 -15 28
-20 30 -62 27 -42 -3 -46 -5 -57 -38 -10 -31 -15 -35 -46 -35 -32 0 -35 2 -32
25 2 14 11 50 21 80 10 30 29 89 42 130 13 41 28 80 34 86 26 27 70 25 92 -5z
m-237 -29 c0 -40 -17 -52 -76 -52 -44 0 -54 -3 -59 -20 -10 -31 2 -40 48 -34
58 8 78 -10 84 -72 9 -97 -22 -129 -135 -137 -70 -4 -72 -4 -78 20 -9 34 7 46
74 58 47 9 57 14 57 30 0 17 -7 20 -48 20 -39 0 -53 5 -68 24 -22 27 -26 102
-6 141 15 29 74 48 155 49 51 1 52 0 52 -27z"/>
<path d="M1700 1115 c0 -23 5 -35 13 -35 22 0 25 10 14 41 -15 39 -27 37 -27
-6z"/>
</g>
</svg>
